<svg xmlns="http://www.w3.org/2000/svg" version="1.1" xmlns:xlink="http://www.w3.org/1999/xlink" xmlns:svgjs="http://svgjs.dev/svgjs" width="1440" height="560" preserveAspectRatio="none" viewBox="0 0 1440 560"><g mask="url(&quot;#SvgjsMask1013&quot;)" fill="none"><path d="M840 126C816.37 136.54 793.37 119.4 790 140C780.78 196.4 835.05 219.1 814.83 280C790.05 354.62 758.7 346.98 700 411.03C694.55 416.98 686.54 413.31 686.54 420C686.54 436.22 683.21 453.11 700 456.84C759.94 470.14 779.14 430.13 840 454.05C910.39 481.71 962.5 529.84 962.5 560C962.5 582.81 901.25 560 840 560C770 560 770 560 700 560C630 560 630 560 560 560C490 560 490 560 420 560C350 560 350 560 280 560C210 560 210 560 140 560C70 560 35 595 0 560C-35 525 0 490 0 420C0 350 0 350 0 280C0 210 0 210 0 140C0 70 -35 35 0 0C35 -35 70 0 140 0C210 0 210 0 280 0C350 0 350 0 420 0C490 0 490 0 560 0C630 0 630 0 700 0C770 0 770 0 840 0C910 0 910 0 980 0C1041.76 0 1042.14 -2.36 1103.53 0C1112.14 0.33 1112.17 1.68 1120 5.38C1190.41 38.63 1188 67.98 1260 73.89C1328 79.47 1333.18 56.82 1400 28.35C1419.89 19.87 1413.03 4.13 1433.43 0C1483.03 -10.04 1516.97 -30.25 1540 0C1570.25 39.75 1540 70 1540 140C1540 210 1540 210 1540 280C1540 350 1540 350 1540 420C1540 490 1575 525 1540 560C1505 595 1470 560 1400 560C1330 560 1330 560 1260 560C1190 560 1190 560 1120 560C1059.03 560 1024.01 592.54 998.06 560C968.19 522.54 1000.89 489.75 1008.35 420C1015.86 349.75 1024.04 350.33 1028 280C1031.92 210.33 1038.38 206.8 1024.11 140C1014.38 94.43 1014.84 57.91 980 55.26C922.79 50.91 911.37 94.17 840 126" stroke="rgba(255, 255, 255, 1)" stroke-width="2"></path><path d="M560 237.58C539.57 237.58 508.15 261.96 508.15 280C508.15 295.45 537.38 304.56 560 304.56C571.74 304.56 576.87 293.23 576.87 280C576.87 259.74 573.93 237.58 560 237.58" stroke="rgba(255, 255, 255, 1)" stroke-width="2"></path><path d="M1260 210C1238.44 210 1222.61 242.71 1222.22 280C1221.51 347.71 1239.46 350.23 1257.81 420C1258.35 422.07 1258.71 423.68 1260 423.68C1261.51 423.68 1262.55 422.35 1263.41 420C1288.99 350.51 1313.96 346 1312.89 280C1312.26 241 1283.78 210 1260 210" stroke="rgba(255, 255, 255, 1)" stroke-width="2"></path><path d="M140 367.5C118.43 367.5 94.35 393.16 94.35 420C94.35 448.58 118.53 478.33 140 478.33C160.1 478.33 177.5 448.71 177.5 420C177.5 393.29 160 367.5 140 367.5" stroke="rgba(255, 255, 255, 1)" stroke-width="2"></path><path d="M0 37.97C11.16 10.06 24.77 8.47 56 0C94.77 -10.52 98 0 140 0C210 0 210 0 280 0C350 0 350 0 420 0C440 0 460 -8.72 460 0C460 12.82 434.66 18.05 420 43.08C393.66 88.05 382.79 89.34 378 140C371.59 207.8 381.22 212.54 397.6 280C402.22 299.01 402.93 303.91 420 312.94C484.13 346.89 501.34 375.67 560 365.96C600.86 359.2 588.22 322.04 619.04 280C658.22 226.56 660.4 175 700 175C738.63 175 775.51 229.32 775.51 280C775.51 324.89 742.3 328.26 700 366.15C664.16 398.26 627.33 381.24 619.23 420C607.07 478.16 677.07 518.4 659.47 560C647.45 588.4 609.74 560 560 560C497 560 494.35 566.24 434 560C424.35 559 429.13 549.53 420 545.52C352.13 515.66 338.01 532.71 280 492.26C248.01 469.95 262.7 454.42 240 420C192.7 348.29 152.78 354.92 140 280C128.9 214.92 192.24 206.39 192.24 140C192.24 100.68 165.99 68.57 140 68.57C114.14 68.57 88.53 100.76 88.53 140C88.53 206.48 155.66 217.61 140 280C120.52 357.61 66.1 343.46 18.26 420C-3.9 455.46 4.62 504 0 504C-4.51 504 0 462 0 420C0 350 0 350 0 280C0 210 0 210 0 140C0 88.99 -16.84 80.06 0 37.97" stroke="rgba(255, 255, 255, 1)" stroke-width="2"></path><path d="M700 89.09C649.4 76.31 618.33 26.58 618.33 0C618.33 -17.96 659.16 0 700 0C770 0 770 0 840 0C886.66 0 933.33 -12.93 933.33 0C933.33 15.07 890.25 36.81 840 56C773.58 81.36 760.23 104.31 700 89.09" stroke="rgba(255, 255, 255, 1)" stroke-width="2"></path><path d="M1072.05 140C1079.84 101.55 1089.44 72.69 1120 72.69C1166.45 72.69 1215.5 93.11 1226.06 140C1238.84 196.77 1172.55 208.25 1166.67 280C1161.08 348.25 1176.77 353.39 1203.13 420C1223.43 471.29 1226.48 515.79 1260 515.79C1299.3 515.79 1317.95 475.64 1348.78 420C1383.28 357.74 1405.29 343.55 1390.67 280C1373.08 203.55 1281.7 198.86 1284.35 140C1286.37 95.19 1345.28 110.72 1400 72.66C1445.94 40.72 1438.49 24.49 1485.67 0C1508.49 -11.84 1532.41 -19.57 1540 0C1559.57 50.43 1540 70 1540 140C1540 210 1540 210 1540 280C1540 350 1540 350 1540 420C1540 483.34 1547.9 487.4 1540 546.67C1538.57 557.4 1532.46 558.94 1521.33 560C1462.46 565.61 1460.66 560 1400 560C1330 560 1330 560 1260 560C1190 560 1190 560 1120 560C1087.26 560 1065.25 582.31 1054.52 560C1031.58 512.31 1046.84 489.44 1052.66 420C1058.58 349.44 1073.12 350.53 1078 280C1082.81 210.53 1058.84 205.2 1072.05 140" stroke="rgba(255, 255, 255, 1)" stroke-width="2"></path><path d="M736.67 560C736.67 544.32 791.23 501.35 840 501.35C876.8 501.35 907.81 543.3 907.81 560C907.81 572.63 873.9 560 840 560C788.34 560 736.67 573.64 736.67 560" stroke="rgba(255, 255, 255, 1)" stroke-width="2"></path><path d="M0 97.29C10.56 97.29 30.54 113.75 37.06 140C53.24 205.11 57.73 215.45 45.41 280C39.2 312.54 12.85 334.19 0 334.19C-9.85 334.19 0 307.1 0 280C0 210 0 210 0 140C0 118.64 -7.97 97.29 0 97.29" stroke="rgba(255, 255, 255, 1)" stroke-width="2"></path><path d="M244.48 140C258.41 73.09 261.28 7.78 280 7.78C298.88 7.78 307.86 72.48 319.67 140C331.66 208.59 339.03 213.3 327.6 280C319.19 329.07 305.51 371.54 280 371.54C253.38 371.54 231 330.01 223.33 280C213.24 214.24 230.07 209.2 244.48 140" stroke="rgba(255, 255, 255, 1)" stroke-width="2"></path><path d="M700 9.55C694.02 9.55 691.25 2.85 691.25 0C691.25 -1.93 695.63 0 700 0C726.25 0 752.5 -2.37 752.5 0C752.5 2.41 724.64 9.55 700 9.55" stroke="rgba(255, 255, 255, 1)" stroke-width="2"></path><path d="M1360.43 140C1360.43 124.54 1382.07 131.1 1400 116.96C1470.81 61.1 1468.71 57.81 1537.91 0C1538.71 -0.67 1539.98 -1.03 1540 0C1541.03 68.97 1540 70 1540 140C1540 171.82 1561.82 195.53 1540 203.64C1491.82 221.53 1461.28 213.72 1400 192C1371.5 181.9 1360.43 162.06 1360.43 140" stroke="rgba(255, 255, 255, 1)" stroke-width="2"></path><path d="M661.2 280C661.2 255.79 681.02 229.69 700 229.69C718.51 229.69 736.18 255.72 736.18 280C736.18 301.51 718.45 321.28 700 321.28C680.96 321.28 661.2 301.59 661.2 280" stroke="rgba(255, 255, 255, 1)" stroke-width="2"></path><path d="M406 420C406 417.78 412.83 415.88 420 415.88C437.33 415.88 455 417.77 455 420C455 422.24 437.26 424.83 420 424.83C412.76 424.83 406 422.25 406 420" stroke="rgba(255, 255, 255, 1)" stroke-width="2"></path><path d="M1096.96 420C1098.94 365.93 1107.2 312.94 1120 312.94C1132.94 312.94 1141.17 365.45 1148.44 420C1157.64 488.98 1164.45 503.33 1152.94 560C1150.23 573.33 1136.47 560 1120 560C1115.49 560 1111.66 564.22 1110.97 560C1100.14 494.22 1094.42 489.46 1096.96 420" stroke="rgba(255, 255, 255, 1)" stroke-width="2"></path><path d="M1460.87 420C1460.87 393.37 1515.21 361.29 1540 361.29C1554.77 361.29 1540 390.64 1540 420C1540 441.66 1552.84 463.33 1540 463.33C1513.27 463.33 1460.87 444.39 1460.87 420" stroke="rgba(255, 255, 255, 1)" stroke-width="2"></path><path d="M550.67 560C550.67 535.95 555.81 504 560 504C564.16 504 567.37 535.23 567.37 560C567.37 563.23 563.68 560 560 560C555.34 560 550.67 563.95 550.67 560" stroke="rgba(255, 255, 255, 1)" stroke-width="2"></path><path d="M820 560C820 556.96 830.56 548.65 840 548.65C847.12 548.65 853.13 556.77 853.13 560C853.13 562.44 846.57 560 840 560C830 560 820 562.64 820 560" stroke="rgba(255, 255, 255, 1)" stroke-width="2"></path><path d="M1390 560C1390 556.07 1396.01 547.27 1400 547.27C1403.34 547.27 1404.67 555.27 1404.67 560C1404.67 561.63 1402.34 560 1400 560C1395 560 1390 562.43 1390 560" stroke="rgba(255, 255, 255, 1)" stroke-width="2"></path></g><defs><mask id="SvgjsMask1013"><rect width="1440" height="560" fill="#ffffff"></rect></mask></defs></svg>